<?xml version="1.0" encoding="utf-8"?>
<!-- Generator: Adobe Illustrator 16.0.2, SVG Export Plug-In . SVG Version: 6.00 Build 0)  -->
<!DOCTYPE svg PUBLIC "-//W3C//DTD SVG 1.1//EN" "http://www.w3.org/Graphics/SVG/1.1/DTD/svg11.dtd">
<svg version="1.1" id="圖層_1" xmlns="http://www.w3.org/2000/svg" xmlns:xlink="http://www.w3.org/1999/xlink" x="0px" y="0px"
	 width="250px" height="300px" viewBox="0 0 250 300" enable-background="new 0 0 250 300" xml:space="preserve">
<path fill="#C3875C" stroke="#40220F" stroke-width="5" stroke-linecap="round" stroke-linejoin="round" stroke-miterlimit="10" d="
	M181.104,24.34c-2.106-3.361-2.066-6.901-0.856-10.242c-1.701-1.215-3.528-1.883-5.427-1.883H75.038
	c-8.893,0-16.09,14.267-16.09,31.889h132.102c-0.016-3.682-0.352-7.226-0.955-10.528C187.651,30.009,183.434,28.055,181.104,24.34z"
	/>
<path fill="#C3875C" stroke="#40220F" stroke-width="5" stroke-linecap="round" stroke-linejoin="round" stroke-miterlimit="10" d="
	M97.18,44.382"/>
<path fill="#C3875C" stroke="#40220F" stroke-width="5" stroke-linecap="round" stroke-linejoin="round" stroke-miterlimit="10" d="
	M90.418,44.382"/>
<path fill="#C3875C" stroke="#40220F" stroke-width="5" stroke-linecap="round" stroke-linejoin="round" stroke-miterlimit="10" d="
	M81.552,44.382"/>
<ellipse fill="#FFFFFF" cx="85.956" cy="32.35" rx="2.669" ry="1.949"/>
<ellipse fill="#FFFFFF" cx="121.912" cy="21.214" rx="2.669" ry="1.948"/>
<ellipse fill="#FFFFFF" cx="160.88" cy="34.309" rx="2.669" ry="1.949"/>
<ellipse fill="#FFFFFF" cx="144.759" cy="25.111" rx="2.669" ry="1.949"/>
<ellipse fill="#FFFFFF" cx="130.261" cy="34.309" rx="2.669" ry="1.949"/>
<ellipse fill="#FFFFFF" cx="84.221" cy="17.317" rx="2.669" ry="1.949"/>
<ellipse fill="#FFFFFF" cx="104.653" cy="28.517" rx="2.669" ry="1.949"/>
<polyline fill="#FFFFFF" points="161.38,6.136 161.38,0.993 191.049,40.203 191.049,53 48.53,53 57.519,-4.25 "/>
</svg>
