<?xml version="1.0" encoding="utf-8"?>
<!-- Generator: Adobe Illustrator 16.0.2, SVG Export Plug-In . SVG Version: 6.00 Build 0)  -->
<!DOCTYPE svg PUBLIC "-//W3C//DTD SVG 1.1//EN" "http://www.w3.org/Graphics/SVG/1.1/DTD/svg11.dtd">
<svg version="1.1" id="圖層_1" xmlns="http://www.w3.org/2000/svg" xmlns:xlink="http://www.w3.org/1999/xlink" x="0px" y="0px"
	 width="143px" height="60px" viewBox="0 0 143 60" enable-background="new 0 0 143 60" xml:space="preserve">
<path fill="#A56C37" d="M134.3,35.8c0,10.5-8.2,18.9-18.3,18.9L43.8,56c-10.1,0-10.1-2.3-2.2-20.2l0,0c0-10.5,8.2-18.9,18.3-18.9
	H116C126.1,16.9,134.3,25.4,134.3,35.8L134.3,35.8z"/>
<path fill="#CA8B5E" d="M125.2,39.4c0,7.4-9.3,16.2-23,16.2H33.3c-13.7,0-24.5-8.9-24.5-16.2l0,0c0-7.4,2.6-13.4,11.9-20.4h85.8
	C120.2,19,125.2,32.1,125.2,39.4L125.2,39.4z"/>
<path fill="none" stroke="#40220F" stroke-width="5" stroke-linecap="round" stroke-linejoin="round" stroke-miterlimit="10" d="
	M97.9,54.7H31.6c-14.3,0-25.9-8.4-25.9-18.9l0,0C5.6,25.5,17.2,17,31.6,17"/>
<path fill="none" stroke="#40220F" stroke-width="5" stroke-linecap="round" stroke-miterlimit="10" d="M124.2,17.5
	c6.1,3.8,10.1,9.7,10.2,16.3l0,0c0.1,10-8.7,18.4-20.4,20.5c-1.7,0.3-3.5,0.5-5.4,0.5"/>
<line fill="none" stroke="#40220F" stroke-width="5" stroke-linecap="round" stroke-miterlimit="10" x1="39.1" y1="17.8" x2="110.3" y2="17.8"/>
<ellipse fill="#FFFFFF" cx="67.1" cy="30.2" rx="2.4" ry="2.3"/>
<ellipse fill="#FFFFFF" cx="112.8" cy="28.5" rx="2.7" ry="2.2"/>
<ellipse fill="#FFFFFF" cx="87.5" cy="34.8" rx="2.4" ry="2.3"/>
<ellipse fill="#FFFFFF" cx="26.4" cy="41" rx="2.4" ry="2.3"/>
<ellipse fill="#FFFFFF" cx="26" cy="26.1" rx="2.7" ry="2.2"/>
<ellipse fill="#FFFFFF" cx="51.8" cy="38.7" rx="2.4" ry="2.3"/>
<path fill="#956134" stroke="#40220F" stroke-width="5" stroke-linecap="round" stroke-miterlimit="10" d="M132.1,13
	c0,1.8-1.3,3.3-2.8,3.3H14.8c-1.5,0-2.8-1.5-2.8-3.3l0,0c0-1.8,1.3-3.3,2.8-3.3h114.5C130.8,9.7,132.1,11.2,132.1,13L132.1,13z"/>
<g id="XMLID_2_">
	
		<polygon id="XMLID_14_" fill="#E5D96A" stroke="#40220F" stroke-width="3.5" stroke-linecap="round" stroke-linejoin="round" stroke-miterlimit="10" points="
		32.1,6.7 20.9,20.9 9.6,6.7 	"/>
	
		<polygon id="XMLID_13_" fill="#E5D96A" stroke="#40220F" stroke-width="3.5" stroke-linecap="round" stroke-linejoin="round" stroke-miterlimit="10" points="
		55.8,5 44.6,19.2 33.3,5 	"/>
	
		<polygon id="XMLID_12_" fill="#E5D96A" stroke="#40220F" stroke-width="3.5" stroke-linecap="round" stroke-linejoin="round" stroke-miterlimit="10" points="
		79.7,6.7 68.3,20.9 57,6.7 	"/>
	
		<polygon id="XMLID_10_" fill="#E5D96A" stroke="#40220F" stroke-width="3.5" stroke-linecap="round" stroke-linejoin="round" stroke-miterlimit="10" points="
		103.4,5 92,19.2 80.7,5 	"/>
	
		<polygon id="XMLID_3_" fill="#E5D96A" stroke="#40220F" stroke-width="3.5" stroke-linecap="round" stroke-linejoin="round" stroke-miterlimit="10" points="
		127.1,6.7 115.7,20.9 104.4,6.7 	"/>
</g>
</svg>
