<?xml version="1.0" encoding="utf-8"?>
<!-- Generator: Adobe Illustrator 16.0.2, SVG Export Plug-In . SVG Version: 6.00 Build 0)  -->
<!DOCTYPE svg PUBLIC "-//W3C//DTD SVG 1.1//EN" "http://www.w3.org/Graphics/SVG/1.1/DTD/svg11.dtd">
<svg version="1.1" id="圖層_1" xmlns="http://www.w3.org/2000/svg" xmlns:xlink="http://www.w3.org/1999/xlink" x="0px" y="0px"
	 width="149px" height="53.2px" viewBox="0 0 149 53.2" enable-background="new 0 0 149 53.2" xml:space="preserve">
<rect x="12.6" y="36.4" fill="#EA5514" stroke="#40220F" stroke-width="3" stroke-linejoin="round" stroke-miterlimit="10" width="122.8" height="9.3"/>
<rect x="16.3" y="46.2" fill="#FAEE00" stroke="#40220F" stroke-width="3" stroke-linejoin="round" stroke-miterlimit="10" width="115.4" height="7"/>
<path id="XMLID_11_" fill="#89BA28" stroke="#8FC31F" stroke-width="5" stroke-linecap="round" stroke-linejoin="round" stroke-miterlimit="10" d="
	M125.9,43.5c0,1.7-1.6,3.1-3.5,3.1c-1.9,0-3.5-1.4-3.5-3.1c0-1.7-1.6-3.1-3.5-3.1c-1.9,0-3.5,1.4-3.5,3.1c0,1.7-1.6,3.1-3.5,3.1
	c-1.9,0-3.5-1.4-3.5-3.1c0-1.7-1.6-3.1-3.5-3.1c-1.9,0-3.5,1.4-3.5,3.1c0,1.7-1.6,3.1-3.5,3.1s-3.5-1.4-3.5-3.1
	c0-1.7-1.6-3.1-3.5-3.1c-1.9,0-3.5,1.4-3.5,3.1c0,1.7-1.6,3.1-3.5,3.1c-1.9,0-3.5-1.4-3.5-3.1c0-1.7-1.6-3.1-3.5-3.1
	c-1.9,0-3.5,1.4-3.5,3.1c0,1.7-1.6,3.1-3.5,3.1c-1.9,0-2.7-1.4-2.7-3.1c0-1.7-1.6-3.1-3.5-3.1c-1.9,0-3.5,1.4-3.5,3.1
	c0,1.7-1.6,3.1-3.5,3.1s-3.5-1.4-3.5-3.1c0-1.7-1.6-3.1-3.5-3.1c-1.9,0-3.5,1.4-3.5,3.1c0,1.7-1.6,3.1-3.5,3.1
	c-1.9,0-3.5-1.4-3.5-3.1c0-1.7-1.6-3.1-3.5-3.1s-3.5,1.4-3.5,3.1c0,1.7-1.6,3.1-3.5,3.1s-2.9-1.4-2.9-3.1v-6.2h104.1v6.2H125.9z"/>
<path id="XMLID_1_" fill="#C3875C" stroke="#40220F" stroke-width="5" stroke-linecap="round" stroke-linejoin="round" stroke-miterlimit="10" d="
	M93.8,4.2h-2.7H24c-8.9,0-16.1,14.3-16.1,31.9l0,0h29.7h6.8h95.7v0.3l0,0c0-17.6-7.3-32.2-16.2-32.2h-3.6H115"/>
<path fill="#C3875C" stroke="#40220F" stroke-width="5" stroke-linecap="round" stroke-linejoin="round" stroke-miterlimit="10" d="
	M46.2,36.4"/>
<path fill="#C3875C" stroke="#40220F" stroke-width="5" stroke-linecap="round" stroke-linejoin="round" stroke-miterlimit="10" d="
	M39.4,36.4"/>
<path fill="#C3875C" stroke="#40220F" stroke-width="5" stroke-linecap="round" stroke-linejoin="round" stroke-miterlimit="10" d="
	M30.6,36.4"/>
<ellipse fill="#FFFFFF" cx="35" cy="24.3" rx="2.7" ry="1.9"/>
<ellipse fill="#FFFFFF" cx="70.9" cy="13.2" rx="2.7" ry="1.9"/>
<ellipse fill="#FFFFFF" cx="109.9" cy="26.3" rx="2.7" ry="1.9"/>
<ellipse fill="#FFFFFF" cx="93.8" cy="17.1" rx="2.7" ry="1.9"/>
<ellipse fill="#FFFFFF" cx="79.3" cy="26.3" rx="2.7" ry="1.9"/>
<ellipse fill="#FFFFFF" cx="33.2" cy="9.3" rx="2.7" ry="1.9"/>
<ellipse fill="#FFFFFF" cx="53.7" cy="20.5" rx="2.7" ry="1.9"/>
</svg>
